<svg version="1.1" id="Layer_1" xmlns="http://www.w3.org/2000/svg" x="0" y="0" viewBox="0 0 500 500" style="enable-background:new 0 0 500 500" xml:space="preserve"><style>.st0{fill:#ca9d42}.st1{fill:#ccb07f}</style><path class="st0" d="M250 434.3v26H114.1c-4.6 0-8.6-2.8-10.2-7.1L97 434.3h153zM250 39.7v375.5H99.8c-4.6 0-8.6-2.8-10.2-7.1L1 165.5c-5.3-14.6 12-26.8 23.9-16.9l124.3 103L236 48.9c2.4-5.6 7.9-9.2 14-9.2z"/><path class="st1" d="M250 434.3v26h135.9c4.6 0 8.6-2.8 10.2-7.1l6.9-18.9H250zM250 39.7v375.5h150.2c4.6 0 8.6-2.8 10.2-7.1L499 165.5c5.3-14.6-12-26.8-23.9-16.9l-124.3 103L264 48.9c-2.4-5.6-7.9-9.2-14-9.2z"/></svg>