<svg data-name="Layer 1" xmlns="http://www.w3.org/2000/svg" viewBox="0 0 500 160.68"><path d="M112.94 46.87A65.4 65.4 0 0 0 89 20.68C78.39 14 65.39 10.53 50.36 10.53H12.43a12 12 0 0 0-8.88 3.77A12.53 12.53 0 0 0 0 23.16V137.7a12.12 12.12 0 0 0 3.61 8.82 12.14 12.14 0 0 0 8.82 3.61h37.93c15 0 28-3.42 38.61-10.14a65.46 65.46 0 0 0 24-26.19 74.24 74.24 0 0 0 0-66.93zM96.05 80.33c0 9.08-2 17.15-5.91 24a41.26 41.26 0 0 1-16.56 16c-7.18 3.88-15.69 5.84-25.3 5.84H25V34.45h23.28c9.61 0 18.12 2 25.3 5.86a41.3 41.3 0 0 1 16.56 16c3.92 6.88 5.91 14.96 5.91 24.02zM282.24 138.73a11.39 11.39 0 0 1-3.41 8.74 12.27 12.27 0 0 1-8.84 3.61 11.8 11.8 0 0 1-9.92-5l-45.9-58.48L197 105v33.67a12 12 0 0 1-3.75 8.87 12.56 12.56 0 0 1-8.87 3.56 12.33 12.33 0 0 1-12.43-12.43V22.21a12.51 12.51 0 0 1 3.56-8.85 12 12 0 0 1 8.87-3.77A12.63 12.63 0 0 1 197 22.21V72.6l57.71-58.72A12.17 12.17 0 0 1 264 9.59a11.89 11.89 0 0 1 8.24 3.21 11 11 0 0 1 3.62 8.29 11.74 11.74 0 0 1-3.23 8.64L231.5 70.64l47.81 60.27a12.64 12.64 0 0 1 2.93 7.82zM426.23 111.28a35.64 35.64 0 0 1-6.79 21.27A43.74 43.74 0 0 1 400.82 147a67.69 67.69 0 0 1-26.82 5 116.42 116.42 0 0 1-46.46-9.37 12.55 12.55 0 0 1-5.47-4.49 12.05 12.05 0 0 1 1-15.11 11.26 11.26 0 0 1 8.48-3.63 12.69 12.69 0 0 1 5.17 1.09 86.71 86.71 0 0 0 35.59 7.41c26.06 0 29.09-10.15 29.09-17.76a8.18 8.18 0 0 0-2.93-6.51 27.3 27.3 0 0 0-9.16-5.17c-4-1.4-9.89-3.12-17.44-5.08a234.94 234.94 0 0 1-25.15-7.79 47.2 47.2 0 0 1-17.69-12c-5.2-5.64-7.83-13.14-7.83-22.29a39.26 39.26 0 0 1 6.29-21.67c4.16-6.45 10.32-11.62 18.32-15.39S363.13 8.66 374 8.66c14.23 0 27.32 2.17 38.92 6.46a11.26 11.26 0 0 1 7.85 11.25 12.13 12.13 0 0 1-3 8 10.81 10.81 0 0 1-8.48 3.84 12.25 12.25 0 0 1-4.39-1 88.66 88.66 0 0 0-29-4.84c-9.16 0-16.62 1.7-22.2 5.09-5.07 3.07-7.45 7-7.45 12.48a10.7 10.7 0 0 0 3.23 8.19 26.38 26.38 0 0 0 9.72 5.73 171 171 0 0 0 17.77 4.89 194 194 0 0 1 24.61 7.33 43.61 43.61 0 0 1 17.22 12.24c4.91 5.75 7.43 13.47 7.43 22.96zM500 22.21v116.44a12 12 0 0 1-3.75 8.87 12.52 12.52 0 0 1-8.87 3.56A12.33 12.33 0 0 1 475 138.65V22.21a12.51 12.51 0 0 1 3.56-8.85 12 12 0 0 1 8.87-3.77A12.63 12.63 0 0 1 500 22.21z"/></svg>